<svg width="25" height="91" viewBox="0 0 25 91" fill="none" xmlns="http://www.w3.org/2000/svg">
<path d="M25 12.5C25 19.4036 19.4036 25 12.5 25C5.59644 25 0 19.4036 0 12.5C0 5.59644 5.59644 0 12.5 0C19.4036 0 25 5.59644 25 12.5Z" fill="#CACACA"/>
<path d="M25 45.5C25 52.4036 19.4036 58 12.5 58C5.59644 58 0 52.4036 0 45.5C0 38.5964 5.59644 33 12.5 33C19.4036 33 25 38.5964 25 45.5Z" fill="#CACACA"/>
<path d="M25 78.5C25 85.4036 19.4036 91 12.5 91C5.59644 91 0 85.4036 0 78.5C0 71.5964 5.59644 66 12.5 66C19.4036 66 25 71.5964 25 78.5Z" fill="#CACACA"/>
</svg>
