<svg width="24" height="25" viewBox="0 0 24 25" fill="none" xmlns="http://www.w3.org/2000/svg">
<path d="M7.8 2.06274H16.2C19.4 2.06274 22 4.66274 22 7.86274V16.2627C22 17.801 21.3889 19.2763 20.3012 20.364C19.2135 21.4517 17.7383 22.0627 16.2 22.0627H7.8C4.6 22.0627 2 19.4627 2 16.2627V7.86274C2 6.32449 2.61107 4.84924 3.69878 3.76152C4.78649 2.67381 6.26174 2.06274 7.8 2.06274ZM7.6 4.06274C6.64522 4.06274 5.72955 4.44203 5.05442 5.11716C4.37928 5.79229 4 6.70796 4 7.66274V16.4627C4 18.4527 5.61 20.0627 7.6 20.0627H16.4C17.3548 20.0627 18.2705 19.6835 18.9456 19.0083C19.6207 18.3332 20 17.4175 20 16.4627V7.66274C20 5.67274 18.39 4.06274 16.4 4.06274H7.6ZM17.25 5.56274C17.5815 5.56274 17.8995 5.69444 18.1339 5.92886C18.3683 6.16328 18.5 6.48122 18.5 6.81274C18.5 7.14426 18.3683 7.46221 18.1339 7.69663C17.8995 7.93105 17.5815 8.06274 17.25 8.06274C16.9185 8.06274 16.6005 7.93105 16.3661 7.69663C16.1317 7.46221 16 7.14426 16 6.81274C16 6.48122 16.1317 6.16328 16.3661 5.92886C16.6005 5.69444 16.9185 5.56274 17.25 5.56274ZM12 7.06274C13.3261 7.06274 14.5979 7.58953 15.5355 8.52721C16.4732 9.46489 17 10.7367 17 12.0627C17 13.3888 16.4732 14.6606 15.5355 15.5983C14.5979 16.536 13.3261 17.0627 12 17.0627C10.6739 17.0627 9.40215 16.536 8.46447 15.5983C7.52678 14.6606 7 13.3888 7 12.0627C7 10.7367 7.52678 9.46489 8.46447 8.52721C9.40215 7.58953 10.6739 7.06274 12 7.06274ZM12 9.06274C11.2044 9.06274 10.4413 9.37881 9.87868 9.94142C9.31607 10.504 9 11.2671 9 12.0627C9 12.8584 9.31607 13.6215 9.87868 14.1841C10.4413 14.7467 11.2044 15.0627 12 15.0627C12.7956 15.0627 13.5587 14.7467 14.1213 14.1841C14.6839 13.6215 15 12.8584 15 12.0627C15 11.2671 14.6839 10.504 14.1213 9.94142C13.5587 9.37881 12.7956 9.06274 12 9.06274Z" fill="#CACACA"/>
</svg>
