<svg width="24" height="25" viewBox="0 0 24 25" fill="none" xmlns="http://www.w3.org/2000/svg">
<path d="M12 22.0627C12 22.0627 19.5 16.0627 19.5 9.56274C19.5 5.42074 16.142 2.06274 12 2.06274C7.858 2.06274 4.5 5.42074 4.5 9.56274C4.5 16.0627 12 22.0627 12 22.0627Z" stroke="#CACACA" stroke-width="2" stroke-linejoin="round"/>
<path d="M12 12.5627C12.394 12.5627 12.7841 12.4851 13.1481 12.3344C13.512 12.1836 13.8427 11.9626 14.1213 11.6841C14.3999 11.4055 14.6209 11.0748 14.7716 10.7108C14.9224 10.3468 15 9.95671 15 9.56274C15 9.16878 14.9224 8.77867 14.7716 8.41469C14.6209 8.05072 14.3999 7.72 14.1213 7.44142C13.8427 7.16285 13.512 6.94187 13.1481 6.79111C12.7841 6.64034 12.394 6.56274 12 6.56274C11.2044 6.56274 10.4413 6.87881 9.87868 7.44142C9.31607 8.00403 9 8.76709 9 9.56274C9 10.3584 9.31607 11.1215 9.87868 11.6841C10.4413 12.2467 11.2044 12.5627 12 12.5627Z" stroke="#CACACA" stroke-width="2" stroke-linejoin="round"/>
</svg>
