<svg width="151" height="90" viewBox="0 0 151 90" fill="none" xmlns="http://www.w3.org/2000/svg">
<path d="M67.2652 13.7473C68.2704 9.72648 71.1854 2.58959 79.9074 5.74436C79.9074 5.74436 77.7037 6.50986 77.2398 8.64396C78.361 9.41719 82.0416 11.474 83.6189 13.0514C84.9334 14.4818 86.7969 17.2732 84.6628 18.3866" stroke="#CACACA" stroke-width="0.695905" stroke-linecap="round" stroke-linejoin="round"/>
<path d="M61.0019 29.869C60.1127 27.8973 59.7261 24.1858 63.9015 22.794C65.0613 23.7992 68.1001 25.7168 70.9765 25.3456" stroke="#CACACA" stroke-width="0.695905" stroke-linecap="round"/>
<path d="M64.2496 23.0259C62.7032 20.7449 61.118 15.6493 67.1492 13.5152C69.8555 15.487 77.3326 19.2448 85.5907 18.5025C88.297 18.8505 92.8977 21.6109 89.6502 29.869" stroke="#CACACA" stroke-width="0.695905" stroke-linecap="round"/>
<path d="M75.5807 6.57865C76.0246 6.6726 76.1935 7.21679 75.8809 7.54557L70.587 13.114C70.2819 13.435 69.7442 13.3093 69.6129 12.8864L67.3901 5.72672C67.2588 5.3038 67.6308 4.89572 68.064 4.98743L75.5807 6.57865Z" fill="url(#paint0_linear_21_283)" stroke="#CACACA" stroke-width="0.695905"/>
<path d="M65.9663 42.3395L59.7261 30.0716C62.4996 30.0716 90.0412 29.3547 91.2738 30.0716L85.4959 42.3395C76.1356 43.4547 68.1234 42.8705 65.9663 42.3395Z" fill="url(#paint1_linear_21_283)" stroke="#CACACA" stroke-width="0.695905" stroke-linecap="round" stroke-linejoin="round"/>
<path d="M67.2652 30.4489L70.2808 42.7433" stroke="#CACACA" stroke-width="0.695905" stroke-linecap="round"/>
<path d="M75.616 29.985V42.9752" stroke="#CACACA" stroke-width="0.695905" stroke-linecap="round"/>
<path d="M83.7349 30.2169L80.7193 42.6273" stroke="#CACACA" stroke-width="0.695905" stroke-linecap="round"/>
<path d="M42.2026 84.5943V50.5225H49.1718V64.0738L55.7539 50.5225H62.3359L54.5923 65.6225L60.7872 83.8199H54.2051L49.9462 71.4302L48.0103 74.5276V84.5943H42.2026Z" fill="url(#paint2_linear_21_283)"/>
<path d="M80.5333 50.5225H65.0461V83.8199H80.5333V78.0122H70.8538V69.1071H78.5974V63.6866H70.8538V55.5558H80.5333V50.5225Z" fill="url(#paint3_linear_21_283)"/>
<path d="M99.5051 50.1353H84.4051V83.4328H90.9872V69.4943H97.5692V64.0738H90.9872V55.1686H99.5051V50.1353Z" fill="url(#paint4_linear_21_283)"/>
<path d="M108.023 50.5225H102.603V83.8199L118.477 84.9815V79.1738H108.023V50.5225Z" fill="url(#paint5_linear_21_283)"/>
<path d="M126.608 50.9097H121.187V84.9815L126.608 86.143V50.9097Z" fill="url(#paint6_linear_21_283)"/>
<path d="M137.449 50.9097H130.479L136.287 67.1712L130.479 86.5302H136.287L140.933 73.3661L145.192 88.0789L151 89.2404L145.192 68.3327L151 50.9097H145.192L140.933 62.9122L137.449 50.9097Z" fill="url(#paint7_linear_21_283)"/>
<path d="M17.4231 55.5558V62.5251H12.0026V57.1046C11.3573 56.2011 9.67949 54.6266 8.13077 55.5558C6.58205 56.4851 6.19487 58.2661 6.19487 59.0405V79.1738C5.93675 80.3353 6.73692 81.884 8.90513 81.884C11.0733 81.884 11.6154 80.3353 12.0026 79.1738V72.9789H17.4231V82.6584C16.5197 84.5943 13.3964 88.621 8.13077 89.2405C2.86513 89.86 0.516239 85.1105 0 82.6584V55.5558C0 50.9097 5.42051 49.2319 8.13077 49.361C14.0159 48.122 16.7778 53.2328 17.4231 55.5558Z" fill="url(#paint8_linear_21_283)"/>
<path d="M25.1666 50.5225L19.3589 85.7558H25.1666L26.3282 79.1738H32.5231L33.6846 84.5943H39.8795L33.6846 50.5225H25.1666Z" fill="url(#paint9_linear_21_283)"/>
<path d="M29.0385 57.8789L26.7154 73.3661H31.7487L29.0385 57.8789Z" fill="black"/>
<defs>
<linearGradient id="paint0_linear_21_283" x1="77.277" y1="6.58208" x2="65.1332" y2="10.3523" gradientUnits="userSpaceOnUse">
<stop stop-color="#E50914"/>
<stop offset="1" stop-color="#6E070C"/>
</linearGradient>
<linearGradient id="paint1_linear_21_283" x1="75.5" y1="29.753" x2="75.5" y2="42.9752" gradientUnits="userSpaceOnUse">
<stop stop-color="#E50914"/>
<stop offset="1" stop-color="#6E070C"/>
</linearGradient>
<linearGradient id="paint2_linear_21_283" x1="42.2026" y1="67.5584" x2="62.3359" y2="67.5584" gradientUnits="userSpaceOnUse">
<stop stop-color="#CD0812"/>
<stop offset="1" stop-color="#81070D"/>
</linearGradient>
<linearGradient id="paint3_linear_21_283" x1="65.0461" y1="67.1712" x2="80.5333" y2="67.1712" gradientUnits="userSpaceOnUse">
<stop stop-color="#CD0812"/>
<stop offset="1" stop-color="#81070D"/>
</linearGradient>
<linearGradient id="paint4_linear_21_283" x1="84.4051" y1="66.784" x2="99.5051" y2="66.784" gradientUnits="userSpaceOnUse">
<stop stop-color="#CD0812"/>
<stop offset="1" stop-color="#81070D"/>
</linearGradient>
<linearGradient id="paint5_linear_21_283" x1="102.603" y1="67.752" x2="118.477" y2="67.752" gradientUnits="userSpaceOnUse">
<stop stop-color="#CD0812"/>
<stop offset="1" stop-color="#81070D"/>
</linearGradient>
<linearGradient id="paint6_linear_21_283" x1="121.187" y1="68.5263" x2="126.608" y2="68.5263" gradientUnits="userSpaceOnUse">
<stop stop-color="#CD0812"/>
<stop offset="1" stop-color="#81070D"/>
</linearGradient>
<linearGradient id="paint7_linear_21_283" x1="130.479" y1="70.0751" x2="151" y2="70.0751" gradientUnits="userSpaceOnUse">
<stop stop-color="#CD0812"/>
<stop offset="1" stop-color="#81070D"/>
</linearGradient>
<linearGradient id="paint8_linear_21_283" x1="0" y1="69.2329" x2="17.4231" y2="69.2329" gradientUnits="userSpaceOnUse">
<stop stop-color="#CD0812"/>
<stop offset="1" stop-color="#81070D"/>
</linearGradient>
<linearGradient id="paint9_linear_21_283" x1="19.3589" y1="68.1392" x2="39.8795" y2="68.1392" gradientUnits="userSpaceOnUse">
<stop stop-color="#CD0812"/>
<stop offset="1" stop-color="#81070D"/>
</linearGradient>
</defs>
</svg>
