<svg width="178" height="39" viewBox="0 0 178 39" fill="none" xmlns="http://www.w3.org/2000/svg">
<path d="M7.45221 12.9853C8.3125 9.54417 10.8074 3.43608 18.2721 6.13608C18.2721 6.13608 16.386 6.79123 15.989 8.6177C16.9485 9.27946 20.0985 11.0398 21.4485 12.3898C22.5735 13.614 24.1684 16.003 22.3419 16.9559" stroke="#CACACA" stroke-width="0.595588" stroke-linecap="round" stroke-linejoin="round"/>
<path d="M2.09182 26.7831C1.33079 25.0956 0.999911 21.9191 4.57344 20.7279C5.56609 21.5882 8.16682 23.2294 10.6286 22.9118" stroke="#CACACA" stroke-width="0.595588" stroke-linecap="round"/>
<path d="M4.87136 20.9265C3.54783 18.9743 2.19121 14.6132 7.35298 12.7868C9.66915 14.4743 16.0684 17.6905 23.1361 17.0552C25.4522 17.353 29.3897 19.7155 26.6103 26.7831" stroke="#CACACA" stroke-width="0.595588" stroke-linecap="round"/>
<path d="M14.826 7.67764L10.2952 12.4434C10.0341 12.7181 9.57384 12.6105 9.46147 12.2486L7.5591 6.12098C7.44672 5.75903 7.76511 5.40977 8.13589 5.48826L14.5691 6.8501C14.9489 6.93051 15.0935 7.39625 14.826 7.67764Z" fill="url(#paint0_linear_175_44)" stroke="#CACACA" stroke-width="0.595588"/>
<path d="M6.34066 37.4559L1 26.9565C3.37363 26.9565 26.9451 26.3429 28 26.9565L23.0549 37.4559C15.044 38.4104 8.18681 37.9104 6.34066 37.4559Z" fill="url(#paint1_linear_175_44)" stroke="#CACACA" stroke-width="0.595588" stroke-linecap="round" stroke-linejoin="round"/>
<path d="M7.45221 27.2794L10.0331 37.8015" stroke="#CACACA" stroke-width="0.595588" stroke-linecap="round"/>
<path d="M14.5992 26.8823V38" stroke="#CACACA" stroke-width="0.595588" stroke-linecap="round"/>
<path d="M21.5479 27.0809L18.967 37.7022" stroke="#CACACA" stroke-width="0.595588" stroke-linecap="round"/>
<path d="M48.896 14.36C47.68 14.36 46.5813 14.5733 45.6 15C44.6187 15.4053 43.7867 16.0133 43.104 16.824C42.4213 17.6133 41.8987 18.584 41.536 19.736C41.1733 20.8667 40.992 22.1467 40.992 23.576C40.992 25.4533 41.28 27.0853 41.856 28.472C42.4533 29.8587 43.328 30.9253 44.48 31.672C45.6533 32.4187 47.1147 32.792 48.864 32.792C49.8667 32.792 50.816 32.7067 51.712 32.536C52.608 32.3653 53.4827 32.152 54.336 31.896V34.392C53.4827 34.712 52.5973 34.9467 51.68 35.096C50.784 35.2453 49.7067 35.32 48.448 35.32C46.1227 35.32 44.1813 34.84 42.624 33.88C41.0667 32.92 39.8933 31.5547 39.104 29.784C38.336 28.0133 37.952 25.9333 37.952 23.544C37.952 21.816 38.1867 20.2373 38.656 18.808C39.1467 17.3787 39.8507 16.1413 40.768 15.096C41.7067 14.0507 42.8587 13.2507 44.224 12.696C45.5893 12.12 47.1573 11.832 48.928 11.832C50.1013 11.832 51.232 11.9493 52.32 12.184C53.408 12.4187 54.3787 12.7493 55.232 13.176L54.08 15.608C53.376 15.288 52.5867 15 51.712 14.744C50.8587 14.488 49.92 14.36 48.896 14.36ZM73.6588 35L70.9068 27.928H61.8508L59.1308 35H56.2188L65.1468 12.056H67.7388L76.6348 35H73.6588ZM67.4828 18.456C67.4188 18.2853 67.3121 17.976 67.1628 17.528C67.0134 17.08 66.8641 16.6213 66.7148 16.152C66.5868 15.6613 66.4801 15.288 66.3948 15.032C66.2881 15.4587 66.1708 15.896 66.0428 16.344C65.9361 16.7707 65.8188 17.1653 65.6908 17.528C65.5841 17.8907 65.4881 18.2 65.4028 18.456L62.8108 25.368H70.0428L67.4828 18.456ZM96.4643 35H93.0723L84.9763 24.088L82.6403 26.136V35H79.7603V12.152H82.6403V23.416C83.2803 22.6907 83.9309 21.9653 84.5923 21.24C85.2536 20.5147 85.9149 19.7893 86.5763 19.064L92.7523 12.152H96.1123L87.0563 22.104L96.4643 35ZM112.341 35H99.5728V12.152H112.341V14.68H102.453V21.816H111.765V24.312H102.453V32.472H112.341V35ZM120.234 35H117.354V12.152H130.122V14.68H120.234V22.776H129.514V25.304H120.234V35ZM133.948 35V12.152H136.828V32.44H146.812V35H133.948ZM157.161 35H148.905V33.336L151.593 32.728V14.456L148.905 13.816V12.152H157.161V13.816L154.473 14.456V32.728L157.161 33.336V35ZM177.093 35H173.829L167.781 25.08L161.637 35H158.597L166.181 23.096L159.077 12.152H162.277L167.877 21.112L173.509 12.152H176.549L169.477 23.032L177.093 35Z" fill="#CACACA"/>
<defs>
<linearGradient id="paint0_linear_175_44" x1="16.0209" y1="6.85303" x2="5.62756" y2="10.0797" gradientUnits="userSpaceOnUse">
<stop stop-color="#E50914"/>
<stop offset="1" stop-color="#6E070C"/>
</linearGradient>
<linearGradient id="paint1_linear_175_44" x1="14.5" y1="26.6838" x2="14.5" y2="38" gradientUnits="userSpaceOnUse">
<stop stop-color="#E50914"/>
<stop offset="1" stop-color="#6E070C"/>
</linearGradient>
</defs>
</svg>
